<svg width="100" height="76" viewBox="0 0 207 157" fill="none" xmlns="http://www.w3.org/2000/svg">
<path fill-rule="evenodd" clip-rule="evenodd" d="M125.032 4.51216C121.415 12.9169 107.733 44.3862 103.724 53.5243L99.468 63.2245L88.5749 67.5129C71.7597 74.1343 41.9376 85.0592 40.6794 85.0592C40.0596 85.0592 39.0786 83.471 38.4994 81.5299C36.9542 76.3503 28.8044 67.9305 22.1955 64.6859C15.6465 61.4723 3.65501 59.2882 1.95177 60.9996C0.170837 62.7891 1.00083 70.6715 3.51286 75.8272C8.00096 85.0406 16.8606 91.3428 28.0239 93.2635L33.704 94.2407L32.4458 100.956C31.3156 106.984 22.8895 138.941 19.4503 150.236C18.7086 152.675 18.0967 154.969 18.0914 155.335C18.0861 155.701 26.4337 156 36.6416 156H55.2006L58.8411 148.019C60.8436 143.63 62.7226 140.046 63.0175 140.056C63.3133 140.066 65.2152 143.657 67.2442 148.037L70.935 156H101.908H132.881L136.158 149.349C137.961 145.691 139.668 142.699 139.954 142.699C140.239 142.699 142.436 145.685 144.837 149.336L149.202 155.973L166.226 155.987C179.931 155.997 183.342 155.761 183.721 154.771C184.456 152.847 155.033 99.2474 153.241 99.2474C152.167 99.2474 148.577 106.017 140.194 123.855L128.629 148.463L120.895 148.721C116.642 148.862 112.888 148.663 112.553 148.277C112.01 147.649 112.397 139.843 113.789 123.412C114.224 118.271 114.128 117.869 112.458 117.869C110.539 117.869 63.4298 126.469 61.5677 127.159C60.9602 127.384 58.2195 132.369 55.4761 138.237L50.4891 148.906H39.0389C27.6266 148.906 27.5895 148.9 28.016 146.911C28.2508 145.813 30.6719 136.735 33.395 126.737C36.118 116.739 38.955 104.997 39.6993 100.645C40.4437 96.2918 41.1483 92.6649 41.2666 92.5851C41.384 92.5044 46.3436 90.7806 52.2877 88.7552C63.3353 84.99 100.611 70.7735 103.485 69.2288C105.024 68.4014 107.019 64.1397 120.566 32.7404C124.038 24.693 127.208 17.755 127.61 17.3223C128.011 16.8896 130.793 21.4812 133.79 27.5245L139.241 38.5132L153.492 43.9703C188.185 57.2566 196.017 60.3381 196.584 60.9296C196.916 61.2763 195.254 65.6613 192.889 70.6742C187.144 82.8556 187.37 82.7607 167.045 81.5441C145.379 80.2468 143.779 79.9798 141.696 77.3187C140.724 76.0799 139.931 73.9712 139.931 72.6321C139.931 70.7487 139.314 69.9426 137.2 69.0638C134.921 68.115 134.34 68.1345 133.682 69.1773C131.167 73.1669 134.364 81.8775 139.516 85.0752C142.336 86.8256 144.876 87.1865 162.419 88.3251C185.101 89.7972 187.652 89.4637 192.939 84.333C197.092 80.3026 207.46 58.1381 205.827 56.7831C205.278 56.3282 196.484 52.7829 186.286 48.9042L167.744 41.8536L159.67 25.9913C155.229 17.2664 151.014 10.0101 150.302 9.86551C149.534 9.70944 148.531 10.7904 147.834 12.5258C147.188 14.1335 145.507 18.0423 144.099 21.2125L141.538 26.9764L135.148 14.169C131.633 7.12544 128.291 1.20631 127.721 1.01566C127.152 0.825002 125.942 2.39812 125.032 4.51216ZM153.945 31.0236C155.563 33.9809 156.725 36.565 156.525 36.7663C156.128 37.1644 148.282 34.3295 147.439 33.4826C146.826 32.8663 149.57 25.6463 150.418 25.6463C150.739 25.6463 152.326 28.0663 153.945 31.0236ZM144.041 49.4372C142.006 51.6949 142.218 54.5547 144.542 56.189C147.04 57.9465 149.146 57.9421 150.905 56.1766C152.546 54.5272 152.733 50.386 151.233 48.8794C149.649 47.2894 145.7 47.5954 144.041 49.4372ZM16.9171 70.1209C20.3916 71.4262 23.4625 73.4994 26.6218 76.6713C30.6931 80.7611 33.1875 85.2587 32.029 86.423C31.1355 87.3196 20.9161 83.9499 17.665 81.6869C14.0334 79.1596 9.81456 73.6821 8.82035 70.206C8.07159 67.5874 10.1183 67.5661 16.9171 70.1209ZM163.408 130.303C168.464 139.656 172.6 147.668 172.6 148.108C172.6 148.547 168.232 148.906 162.894 148.906H153.187L148.277 141.497L143.368 134.089L148.408 123.308C151.18 117.378 153.62 112.7 153.831 112.912C154.042 113.124 158.352 120.95 163.408 130.303ZM105.758 136.27C104.978 150.559 104.596 150.756 100.339 139.073C98.3104 133.507 96.654 128.682 96.6584 128.351C96.6663 127.645 99.4741 127.029 103.459 126.858L106.279 126.737L105.758 136.27ZM89.5329 131.042C90.641 133.121 95.7825 147.228 95.7825 148.189C95.7825 148.583 91.2785 148.906 85.7723 148.906H75.7631L72.0431 141.264C69.9973 137.061 68.4919 133.454 68.6967 133.248C69.1117 132.832 84.7551 129.648 87.1427 129.495C87.9753 129.441 89.0508 130.138 89.5329 131.042Z" fill="black" stroke="white"/>
</svg>
